<?xml version="1.0" encoding="utf-8"?>
<!-- Generator: Adobe Illustrator 24.2.0, SVG Export Plug-In . SVG Version: 6.00 Build 0)  -->
<svg version="1.1" id="Layer_1" xmlns="http://www.w3.org/2000/svg" xmlns:xlink="http://www.w3.org/1999/xlink" x="0px" y="0px"
	 viewBox="0 0 160 46.12" style="enable-background:new 0 0 160 46.12;" xml:space="preserve">
<style type="text/css">
	.st0{fill:#FFFFFF;}
</style>
<g>
	<g>
		<path class="st0" d="M1.45,44.08V3.3h10.43v40.78H1.45z M26.67,44.08L11.26,23.63L26.7,3.3h12.33L21.75,25.21l0.56-3.4
			l17.14,22.27H26.67z"/>
		<path class="st0" d="M53.63,44.08V26.03l1.14,3.78L38.33,3.3h11.48l10.25,17.43l-2.14,0.06L68.19,3.3h10.49L62.41,29.93l1.17-3.9
			v18.05H53.63z"/>
		<path class="st0" d="M78.53,44.08L92.27,3.3h14.15l14.27,40.78h-11.46l-3.78-11.51l0.35-0.76L98.33,8.28h1.7l-7.29,23.53
			l0.32,0.76l-3.81,11.51H78.53z M87.64,35.44l2.34-7.35h18.87l2.75,7.35H87.64z"/>
		<path class="st0" d="M124.35,44.08V3.3h11.46l19.75,32.72l-3.16,0.23V3.3h9.46v40.78h-11.48l-19.72-32.72l3.16-0.21v32.93H124.35z
			"/>
	</g>
</g>
</svg>
